<?xml version="1.0" standalone="no"?>
<!DOCTYPE svg PUBLIC "-//W3C//DTD SVG 20010904//EN"
 "http://www.w3.org/TR/2001/REC-SVG-20010904/DTD/svg10.dtd">
<svg version="1.0" xmlns="http://www.w3.org/2000/svg"
 width="500.000000pt" height="500.000000pt" viewBox="0 0 500.000000 500.000000"
 preserveAspectRatio="xMidYMid meet">

<g transform="translate(0.000000,500.000000) scale(0.100000,-0.100000)"
fill="#000000" stroke="none">
<path d="M1835 3499 c-352 -44 -638 -301 -724 -651 l-16 -68 -50 33 c-63 43
-300 177 -311 177 -5 0 41 -33 101 -73 61 -39 143 -96 183 -125 l72 -54 0 -98
c0 -439 355 -810 800 -837 115 -7 215 8 332 48 66 22 92 27 107 20 38 -21 164
-167 192 -224 17 -32 32 -57 35 -55 18 19 122 164 119 167 -2 2 -25 7 -51 12
-26 5 -70 20 -98 34 -56 27 -140 91 -143 109 -2 6 16 22 39 36 98 59 235 219
285 331 29 67 43 50 43 -50 0 -105 3 -117 41 -136 37 -20 57 -19 102 5 31 17
37 17 37 5 0 -18 16 -19 59 -4 34 12 40 24 16 33 -12 4 -15 26 -15 106 l0 100
-45 0 c-25 0 -45 -4 -45 -10 0 -5 7 -10 15 -10 13 0 15 -15 13 -92 -3 -92 -3
-93 -32 -107 -26 -12 -33 -12 -55 0 -25 14 -26 19 -29 117 l-3 102 -34 0 c-19
0 -35 2 -35 5 0 3 9 38 21 78 30 104 37 279 15 387 -77 378 -365 644 -746 690
-94 11 -96 11 -195 -1z m222 -54 c244 -82 463 -334 538 -621 39 -147 38 -351
-1 -499 -37 -137 -140 -305 -225 -366 l-30 -21 -28 26 c-15 14 -32 26 -37 26
-6 0 -21 11 -34 25 -13 14 -47 40 -74 57 -28 18 -76 51 -107 75 -30 24 -59 43
-65 43 -5 0 -20 9 -34 20 l-25 19 47 -1 c66 -1 98 26 145 120 44 85 66 100
153 102 55 1 36 15 -33 23 -26 4 -65 16 -88 27 -27 14 -50 19 -68 15 -28 -6
-28 -5 -33 44 -7 74 -45 140 -102 179 -74 50 -86 45 -86 -32 0 -71 16 -125 54
-183 25 -38 44 -93 32 -93 -4 0 -33 14 -66 30 -116 58 -273 75 -315 34 -13
-14 -31 -5 -161 78 -96 61 -149 101 -156 117 -5 14 -6 61 -3 105 24 298 162
532 371 627 140 64 287 72 431 24z m-101 -747 c54 -48 76 -104 75 -194 0 -41
-3 -79 -6 -84 -14 -23 -33 -8 -39 32 -4 23 -19 63 -34 88 -15 25 -33 58 -40
73 -14 33 -16 117 -2 117 5 0 26 -15 46 -32z m-508 -198 c213 -143 288 -194
325 -221 l29 -21 -49 -33 c-43 -29 -93 -95 -93 -123 0 -26 127 28 183 78 l34
30 68 -53 c38 -28 97 -72 131 -97 35 -25 95 -69 134 -99 66 -51 70 -56 54 -68
-35 -26 -149 -55 -234 -60 -344 -22 -693 318 -765 745 -4 23 -4 42 -1 42 4 0
86 -54 184 -120z m310 -25 c35 -8 98 -33 141 -55 43 -22 83 -40 89 -40 21 0
13 -29 -12 -45 -71 -47 -142 -38 -250 31 -124 80 -144 110 -78 117 20 2 39 4
42 5 3 1 33 -5 68 -13z m377 3 c28 -13 32 -23 11 -31 -8 -3 -22 -29 -31 -57
-10 -29 -34 -69 -54 -91 -34 -34 -43 -39 -84 -39 -54 0 -60 12 -17 30 43 18
77 63 96 126 8 29 23 58 32 64 21 12 17 12 47 -2z m-310 -274 c-30 -25 -98
-64 -111 -64 -15 0 52 63 81 76 49 22 63 16 30 -12z"/>
<path d="M3523 2486 c-45 -10 -54 -20 -28 -30 11 -4 15 -22 15 -71 0 -62 -1
-65 -19 -55 -29 15 -83 12 -110 -6 -50 -36 -66 -134 -31 -192 34 -56 70 -62
158 -26 6 3 12 -1 12 -10 0 -11 8 -13 38 -9 41 6 53 13 35 20 -10 4 -13 51
-13 193 0 104 -3 190 -7 192 -5 2 -27 -1 -50 -6z m-29 -178 c11 -16 16 -46 16
-100 0 -75 -1 -78 -25 -84 -54 -14 -104 58 -92 133 11 68 69 97 101 51z"/>
<path d="M3112 2323 c-40 -20 -65 -54 -56 -77 11 -30 47 -15 55 22 9 42 21 55
53 55 35 0 56 -20 56 -52 0 -23 -7 -29 -50 -44 -97 -34 -138 -96 -88 -131 29
-21 56 -20 100 3 29 14 38 16 42 5 9 -22 54 -28 81 -10 30 20 35 42 6 27 -10
-6 -21 -7 -25 -4 -3 3 -6 48 -6 98 0 76 -3 95 -18 108 -24 22 -106 22 -150 0z
m108 -138 c0 -37 -4 -47 -25 -61 -53 -35 -104 27 -57 69 16 15 57 35 75 36 4
1 7 -19 7 -44z"/>
<path d="M3665 2328 c-63 -20 -61 -19 -37 -29 21 -8 22 -14 22 -99 0 -85 -1
-91 -22 -100 -17 -6 -1 -9 57 -9 71 -1 77 1 55 12 -22 11 -25 20 -28 74 -2 52
0 65 21 89 23 26 26 27 56 14 28 -11 34 -11 49 4 23 22 5 50 -35 54 -24 2 -36
-4 -56 -27 -32 -39 -37 -39 -37 -1 0 33 -1 33 -45 18z"/>
<path d="M3925 2326 c-64 -28 -88 -91 -35 -91 21 0 26 5 28 33 6 64 92 79 108
18 8 -33 2 -40 -45 -56 -55 -18 -111 -66 -111 -95 0 -27 34 -55 65 -55 11 0
36 8 54 18 33 18 35 18 53 0 10 -10 27 -18 38 -18 22 0 66 38 56 48 -4 3 -12
0 -18 -6 -24 -24 -28 -10 -28 87 0 92 -2 101 -22 115 -27 19 -102 20 -143 2z
m105 -141 c0 -37 -4 -47 -25 -61 -21 -14 -31 -15 -51 -5 -37 16 -29 58 15 88
51 34 61 30 61 -22z"/>
<path d="M2680 1975 c0 -3 6 -16 14 -28 8 -12 38 -83 66 -157 29 -74 56 -139
60 -143 4 -5 23 34 41 86 18 53 36 94 40 91 3 -2 21 -42 38 -89 18 -47 36 -85
40 -85 5 0 32 68 61 151 29 83 59 153 66 156 28 10 13 23 -26 23 -22 0 -40 -4
-40 -10 0 -5 7 -10 15 -10 20 0 20 -1 -19 -115 -38 -113 -29 -116 -82 24 -28
74 -30 91 -9 91 8 0 15 5 15 10 0 6 -28 10 -65 10 -37 0 -65 -4 -65 -10 0 -5
5 -10 10 -10 6 0 20 -21 31 -47 20 -47 20 -49 4 -98 -10 -27 -21 -54 -25 -58
-6 -7 -80 172 -80 194 0 5 7 9 15 9 8 0 15 5 15 10 0 6 -27 10 -60 10 -33 0
-60 -2 -60 -5z"/>
<path d="M3370 1973 c-8 -2 -21 -7 -29 -9 -11 -4 -12 -7 -3 -16 8 -8 12 -61
12 -161 0 -128 2 -148 14 -138 11 10 24 10 54 0 98 -29 169 76 113 167 -23 38
-47 45 -95 29 l-36 -13 0 74 c0 41 -3 74 -7 73 -5 0 -15 -3 -23 -6z m109 -179
c41 -52 14 -155 -36 -137 -32 11 -43 36 -43 100 0 63 0 63 29 63 20 0 36 -9
50 -26z"/>
<path d="M3194 1848 c-17 -4 -39 -17 -48 -27 -23 -25 -32 -101 -16 -130 15
-30 72 -53 108 -45 33 8 72 42 72 62 0 12 -4 12 -20 -3 -43 -39 -120 -9 -120
46 0 17 8 19 70 19 61 0 70 2 70 18 0 22 -36 57 -65 64 -11 2 -34 1 -51 -4z
m64 -40 c3 -27 2 -28 -42 -28 -48 0 -54 7 -35 41 8 15 19 19 42 17 27 -2 33
-8 35 -30z"/>
<path d="M3620 1846 c-65 -22 -55 -78 21 -117 46 -23 58 -44 37 -65 -22 -22
-66 -2 -83 38 l-15 33 2 -39 c3 -35 7 -41 33 -48 63 -17 115 11 115 63 0 25
-8 33 -55 60 -64 36 -76 69 -25 69 23 0 35 -8 51 -32 l20 -33 -3 35 c-3 29 -7
35 -34 41 -17 3 -46 1 -64 -5z"/>
</g>
</svg>
