<?xml version="1.0" standalone="no"?>
<!DOCTYPE svg PUBLIC "-//W3C//DTD SVG 20010904//EN"
 "http://www.w3.org/TR/2001/REC-SVG-20010904/DTD/svg10.dtd">
<svg version="1.0" xmlns="http://www.w3.org/2000/svg"
 width="500.000000pt" height="500.000000pt" viewBox="0 0 500.000000 500.000000"
 preserveAspectRatio="xMidYMid meet">

<g transform="translate(0.000000,500.000000) scale(0.100000,-0.100000)"
fill="#000000" stroke="none">
<path d="M1415 3469 c-138 -17 -291 -78 -399 -159 -75 -55 -179 -169 -225
-247 -44 -75 -86 -179 -102 -254 -6 -27 -13 -49 -16 -49 -2 0 -23 13 -46 29
-23 15 -85 52 -137 81 -52 29 -110 61 -127 72 -65 39 -31 7 40 -39 39 -25 116
-78 169 -116 l98 -70 0 -102 c0 -444 353 -815 800 -842 116 -7 214 8 338 50
l95 32 83 -88 c51 -53 97 -112 115 -149 17 -33 32 -58 35 -56 2 3 31 40 63 84
60 80 62 94 15 94 -56 0 -107 29 -220 124 l-34 28 47 32 c106 69 230 215 280
327 29 67 43 50 43 -50 0 -73 3 -93 20 -114 29 -37 72 -43 120 -18 33 17 40
18 40 6 0 -18 22 -18 70 -1 29 11 32 14 18 22 -14 8 -18 28 -20 109 l-3 100
-47 3 c-29 2 -48 -1 -48 -7 0 -6 7 -11 15 -11 12 0 15 -17 15 -89 0 -82 -2
-91 -22 -105 -30 -21 -54 -20 -78 4 -17 17 -20 33 -20 115 l0 95 -35 0 c-19 0
-35 2 -35 5 0 3 9 38 21 78 30 104 37 279 15 387 -77 378 -365 644 -746 690
-94 11 -96 11 -195 -1z m222 -54 c244 -82 463 -334 538 -621 39 -147 38 -351
-1 -499 -37 -140 -170 -350 -233 -370 -19 -6 -71 23 -107 60 -9 9 -51 39 -93
67 -42 27 -85 58 -96 67 -11 10 -40 29 -64 42 l-43 24 43 7 c56 10 101 54 136
134 30 70 45 80 126 87 66 6 68 14 5 22 -29 4 -72 16 -96 27 -24 11 -55 18
-72 16 -27 -4 -29 -2 -35 41 -10 64 -31 110 -68 149 -36 38 -103 76 -117 67
-6 -3 -10 -35 -10 -69 0 -56 6 -75 45 -152 65 -128 63 -132 -42 -81 -86 41
-91 42 -191 42 -68 0 -105 -4 -110 -12 -5 -8 -52 18 -147 79 -77 49 -147 93
-155 98 -12 7 -15 28 -13 106 8 292 153 546 369 645 140 64 287 72 431 24z
m-100 -750 c46 -39 68 -87 77 -165 12 -105 -29 -178 -46 -82 -4 24 -21 65 -37
92 -16 26 -34 65 -40 86 -13 46 -14 104 -3 104 5 0 27 -16 49 -35z m-494 -199
c98 -67 206 -140 240 -163 34 -23 73 -51 87 -62 24 -19 24 -20 5 -27 -40 -15
-78 -48 -106 -92 -16 -25 -29 -50 -29 -55 0 -26 136 32 193 83 l34 30 68 -53
c38 -28 94 -70 125 -92 31 -22 79 -58 106 -81 27 -22 62 -49 77 -59 l29 -19
-37 -18 c-57 -30 -182 -58 -254 -58 -337 0 -675 347 -737 756 -5 38 -4 45 7
39 8 -5 94 -63 192 -129z m430 -77 l116 -54 -28 -29 c-44 -43 -112 -48 -177
-10 -67 38 -194 126 -194 134 0 18 21 22 90 18 66 -4 91 -12 193 -59z m255 49
c9 -9 9 -15 0 -26 -7 -8 -28 -46 -48 -85 -43 -87 -85 -117 -141 -101 l-34 10
43 23 c47 24 79 67 88 121 11 60 59 91 92 58z m-298 -246 c0 -9 -109 -82 -123
-82 -22 0 34 54 78 75 35 16 45 18 45 7z"/>
<path d="M3108 2456 c-51 -10 -61 -20 -28 -29 17 -4 20 -14 20 -71 0 -63 -1
-66 -19 -56 -11 5 -38 10 -61 10 -77 0 -125 -85 -100 -178 19 -72 80 -100 144
-67 35 19 36 19 36 -1 0 -11 5 -14 16 -10 9 3 29 6 45 6 16 0 29 5 29 10 0 6
-7 10 -15 10 -12 0 -15 31 -17 193 l-3 192 -47 -9z m-32 -177 c15 -17 19 -36
19 -96 0 -84 -11 -101 -57 -90 -82 21 -85 207 -3 207 12 0 30 -9 41 -21z"/>
<path d="M2688 2289 c-53 -27 -66 -89 -18 -89 20 0 30 19 30 56 0 34 43 51 76
29 26 -17 35 -75 12 -75 -29 0 -118 -50 -134 -75 -39 -60 39 -109 110 -67 33
19 34 19 50 1 9 -10 24 -19 34 -19 22 0 62 27 62 42 0 7 -5 6 -15 -2 -27 -22
-35 0 -35 100 0 88 -2 100 -19 110 -32 16 -112 11 -153 -11z m112 -137 c0 -43
-3 -50 -26 -61 -48 -22 -88 13 -65 57 9 17 64 51 84 52 4 0 7 -22 7 -48z"/>
<path d="M3240 2297 c-47 -14 -47 -15 -22 -33 19 -13 22 -24 22 -94 0 -70 -2
-81 -22 -94 -21 -15 -18 -16 52 -15 55 0 69 3 53 9 -21 9 -23 16 -23 83 0 61
3 77 20 92 17 15 24 16 50 5 35 -15 60 -8 60 18 0 48 -58 56 -101 13 l-29 -29
0 29 c0 31 -5 33 -60 16z"/>
<path d="M3502 2293 c-40 -20 -65 -54 -56 -77 11 -30 47 -15 55 22 9 42 21 55
53 55 35 0 56 -20 56 -52 0 -23 -7 -29 -50 -44 -97 -34 -138 -96 -88 -131 29
-21 56 -20 100 3 29 14 38 16 42 5 9 -22 54 -28 81 -10 30 20 35 42 6 27 -10
-6 -21 -7 -25 -4 -3 3 -6 48 -6 98 0 76 -3 95 -18 108 -24 22 -106 22 -150 0z
m108 -138 c0 -37 -4 -47 -25 -61 -53 -35 -104 27 -57 69 16 15 57 35 75 36 4
1 7 -19 7 -44z"/>
<path d="M2260 1940 c0 -5 4 -10 8 -10 5 0 37 -72 71 -161 35 -88 66 -157 70
-152 4 4 20 44 36 88 15 44 31 83 34 87 4 5 22 -33 41 -83 18 -49 37 -92 41
-94 4 -3 31 65 60 151 29 86 58 158 66 161 27 10 12 23 -27 23 -22 0 -40 -4
-40 -10 0 -5 7 -10 15 -10 21 0 19 -12 -16 -119 -35 -105 -33 -106 -79 18 -34
94 -35 101 -15 101 8 0 15 5 15 10 0 6 -28 10 -65 10 -37 0 -65 -4 -65 -10 0
-5 5 -10 11 -10 5 0 19 -21 31 -46 20 -46 20 -48 3 -105 -10 -33 -21 -59 -24
-59 -6 0 -81 189 -81 203 0 4 7 7 15 7 8 0 15 5 15 10 0 6 -27 10 -60 10 -33
0 -60 -4 -60 -10z"/>
<path d="M2945 1943 c-24 -6 -44 -23 -27 -23 9 0 12 -40 12 -151 0 -135 2
-150 16 -145 9 3 33 2 55 -4 45 -12 101 6 118 38 18 34 13 106 -9 134 -25 33
-49 38 -94 23 l-36 -13 0 74 c0 41 -3 73 -7 73 -5 -1 -17 -3 -28 -6z m115
-175 c29 -31 28 -111 -1 -132 -23 -16 -47 -12 -66 12 -13 16 -18 124 -6 135
14 14 53 6 73 -15z"/>
<path d="M2772 1818 c-60 -16 -89 -96 -57 -158 27 -53 116 -61 156 -14 31 36
28 41 -10 22 -31 -15 -43 -17 -64 -7 -23 10 -47 46 -47 69 0 6 34 10 75 10 41
0 75 2 75 5 0 2 -5 15 -11 28 -18 39 -67 58 -117 45z m68 -28 c16 -29 4 -40
-40 -40 -45 0 -51 6 -39 38 11 29 63 31 79 2z"/>
<path d="M3215 1822 c-30 -6 -55 -32 -55 -57 0 -25 20 -45 68 -69 38 -20 49
-40 33 -60 -18 -22 -65 -1 -84 37 l-17 32 3 -40 c2 -36 5 -40 38 -47 50 -10
92 3 107 35 18 37 3 61 -59 93 -56 28 -64 57 -16 62 22 3 31 -3 45 -27 22 -39
32 -39 32 -1 0 24 -5 31 -27 36 -16 3 -32 7 -38 8 -5 1 -19 0 -30 -2z"/>
</g>
</svg>
