<svg width="63" height="63" viewBox="0 0 63 63" fill="none" xmlns="http://www.w3.org/2000/svg">
<rect x="2" y="2" width="59" height="59" rx="29.5" fill="#5C636D" stroke="#5C636D" stroke-width="3"/>
<path d="M25.0358 13.7137C25.8562 13.4784 26.6862 13.3018 27.526 13.1837C28.3658 13.0656 29.2347 13.0061 30.1329 13.0051C32.6713 13.0023 35.0725 13.4879 37.3364 14.4617C39.6004 15.4355 41.571 16.7611 43.2484 18.4385C44.9258 20.1159 46.2466 22.0817 47.2106 24.3359C48.1747 26.5901 48.6651 28.9961 48.6818 31.554C48.6595 34.112 48.1638 36.5191 47.1948 38.7754C46.2258 41.0317 44.8958 43.0053 43.205 44.6962C41.5141 46.387 39.5405 47.717 37.2842 48.686C35.0279 49.655 32.6208 50.1507 30.0628 50.173C29.1842 50.1544 28.3251 50.087 27.4856 49.9708C26.6461 49.8546 25.8262 49.6895 25.0259 49.4756C26.9596 48.9072 28.7569 48.0559 30.4179 46.9215C32.0788 45.7872 33.5155 44.4383 34.7278 42.8749C35.9401 41.3115 36.8842 39.5678 37.5599 37.6437C38.2357 35.7196 38.565 33.6935 38.5478 31.5651C38.5697 29.4368 38.2399 27.4162 37.5586 25.5034C36.8773 23.5906 35.9371 21.8489 34.738 20.2784C33.5388 18.7079 32.11 17.3573 30.4516 16.2266C28.7931 15.0959 26.9879 14.2583 25.0358 13.7137Z" fill="white"/>
</svg>
