<svg id="Layer_1" data-name="Layer 1" xmlns="http://www.w3.org/2000/svg" viewBox="0 0 763.75 763.75"><defs><style>.cls-1{fill:#231f20;}</style></defs><path class="cls-1" d="M919.55,919.09c-33.95-35.43-72.63-75.84-106.89-111.62A380.6,380.6,0,0,0,922.37,539.62c0-210.9-171-381.87-381.87-381.87s-381.87,171-381.87,381.87S329.59,921.5,540.5,921.5a380,380,0,0,0,212.7-64.69q12.09,30.13,24.14,60.3a6.8,6.8,0,0,0,6.38,4.31h136C921,921.42,921.42,919.44,919.55,919.09Zm-379-45.17c-145,0-262.54-149.66-262.54-334.3S395.5,205.29,540.5,205.29,803,355,803,539.62c0,50.41-8.78,98.22-24.48,141.11L637.92,541.5a6.62,6.62,0,0,0-4.7-2q-22.8.06-45.67,0c-11.73,0-23.45,0-35.1-.12q17.88,24,35.78,47.85c-1.94,3.52-39.79,74.51-.22,143.21,36,62.39,105.55,71.6,115.09,71.6C658.39,847.07,601.94,873.92,540.5,873.92Z" transform="translate(-158.63 -157.75)"/></svg>