<?xml version="1.0" standalone="no"?>
<!DOCTYPE svg PUBLIC "-//W3C//DTD SVG 20010904//EN"
 "http://www.w3.org/TR/2001/REC-SVG-20010904/DTD/svg10.dtd">
<svg version="1.0" xmlns="http://www.w3.org/2000/svg"
 width="248.000000pt" height="118.000000pt" viewBox="0 0 248.000000 118.000000"
 preserveAspectRatio="xMidYMid meet">

<g transform="translate(0.000000,118.000000) scale(0.100000,-0.100000)"
fill="#000000" stroke="none">
<path d="M1160 931 c-124 -38 -200 -126 -330 -380 -135 -264 -196 -331 -301
-331 -72 0 -153 63 -182 143 -7 18 -42 23 -52 7 -7 -11 17 -61 52 -108 13 -18
48 -46 76 -62 111 -64 234 -29 323 92 24 33 80 133 124 220 85 172 149 270
202 310 131 100 201 77 288 -94 66 -128 99 -171 153 -197 56 -27 135 -28 185
-2 20 11 102 66 182 124 80 58 146 104 147 103 1 0 -38 -80 -87 -176 -92 -181
-105 -220 -71 -220 15 0 46 52 140 236 67 130 121 242 121 250 0 19 -18 22
-260 33 -290 15 -270 16 -270 -13 0 -28 9 -29 270 -43 l144 -8 -163 -118 c-90
-64 -181 -122 -202 -128 -94 -29 -157 18 -234 171 -59 118 -108 174 -164 190
-41 11 -56 11 -91 1z"/>
</g>
</svg>
